<?xml version="1.0" encoding="UTF-8"?>
<svg version="1.1" xmlns="http://www.w3.org/2000/svg" width="25" height="24">
<path d="M0 0 C0.7940625 -0.01417969 1.588125 -0.02835937 2.40625 -0.04296875 C4.5 0.1875 4.5 0.1875 6.5 2.1875 C6.5 5.1875 6.5 5.1875 5.5 7.1875 C7.15 7.8475 8.8 8.5075 10.5 9.1875 C10.98648649 16.4847973 10.98648649 16.4847973 8.8125 19.625 C6.21503031 21.38004709 4.60897647 21.891407 1.5 22.1875 C0.530625 22.31125 -0.43875 22.435 -1.4375 22.5625 C-5.86695401 22.02011788 -7.39019471 20.36962634 -10.5 17.1875 C-12.33966443 13.63081544 -11.52226291 8.95903057 -10.5 5.1875 C-7.33328762 1.20357152 -4.99253093 0.04052379 0 0 Z M-0.5 5.1875 C-0.5 5.8475 -0.5 6.5075 -0.5 7.1875 C-1.49 6.8575 -2.48 6.5275 -3.5 6.1875 C-5.83775029 9.02323263 -5.83775029 9.02323263 -5.25 12.3125 C-5.0025 13.26125 -4.755 14.21 -4.5 15.1875 C-3.84 15.5175 -3.18 15.8475 -2.5 16.1875 C-1.84 15.8575 -1.18 15.5275 -0.5 15.1875 C-0.17 15.8475 0.16 16.5075 0.5 17.1875 C0.5 16.5275 0.5 15.8675 0.5 15.1875 C1.16 14.8575 1.82 14.5275 2.5 14.1875 C1.51 13.8575 0.52 13.5275 -0.5 13.1875 C-0.5 11.8675 -0.5 10.5475 -0.5 9.1875 C0.49 8.5275 1.48 7.8675 2.5 7.1875 C1.84 7.1875 1.18 7.1875 0.5 7.1875 C0.17 6.5275 -0.16 5.8675 -0.5 5.1875 Z " fill="#488235" transform="translate(12.5,0.8125)"/>
<path d="M0 0 C0.7940625 -0.01417969 1.588125 -0.02835937 2.40625 -0.04296875 C4.5 0.1875 4.5 0.1875 6.5 2.1875 C6.5 3.1775 6.5 4.1675 6.5 5.1875 C3.0980513 7.28100689 0.44727588 7.36692163 -3.5 7.1875 C-3.5 7.8475 -3.5 8.5075 -3.5 9.1875 C-4.16 9.1875 -4.82 9.1875 -5.5 9.1875 C-5.685625 10.3940625 -5.685625 10.3940625 -5.875 11.625 C-6.08125 12.470625 -6.2875 13.31625 -6.5 14.1875 C-7.49 14.6825 -7.49 14.6825 -8.5 15.1875 C-9.43768464 11.86758951 -10.24030715 8.63384059 -10.5 5.1875 C-7.66093938 1.0303041 -4.85976651 0.03944616 0 0 Z " fill="#CB3B00" transform="translate(12.5,0.8125)"/>
<path d="M0 0 C1 1 1 1 1.09765625 2.84765625 C1.04882812 5.92382812 1.04882812 5.92382812 1 9 C-1.3125 9.6875 -1.3125 9.6875 -4 10 C-5.5625 8.6875 -5.5625 8.6875 -7 7 C-9.09989652 5.82425289 -9.09989652 5.82425289 -11 5 C-11 3.35 -11 1.7 -11 0 C-7.17998192 -1.37520651 -3.92473073 -0.74051523 0 0 Z " fill="#15589A" transform="translate(22,9)"/>
<path d="M0 0 C0.66 0.66 1.32 1.32 2 2 C0.906875 2.103125 -0.18625 2.20625 -1.3125 2.3125 C-4.85559629 2.97307727 -5.93243723 3.2027092 -8 6 C-8.99 5.67 -9.98 5.34 -11 5 C-10 2 -10 2 -8.3125 0.8125 C-5.39290965 -0.21330202 -3.0734409 -0.26725573 0 0 Z " fill="#983000" transform="translate(14,1)"/>
<path d="M0 0 C0.99 0.33 1.98 0.66 3 1 C3.1875 3.375 3.1875 3.375 3 6 C2.01 6.66 1.02 7.32 0 8 C-0.38063221 5.6739143 -0.71269945 3.33944736 -1 1 C-0.67 0.67 -0.34 0.34 0 0 Z " fill="#FBC406" transform="translate(4,8)"/>
<path d="" fill="#000000" transform="translate(0,0)"/>
<path d="" fill="#000000" transform="translate(0,0)"/>
<path d="" fill="#000000" transform="translate(0,0)"/>
<path d="" fill="#000000" transform="translate(0,0)"/>
<path d="" fill="#000000" transform="translate(0,0)"/>
<path d="" fill="#000000" transform="translate(0,0)"/>
</svg>
