<?xml version="1.0" encoding="UTF-8"?>
<svg version="1.1" xmlns="http://www.w3.org/2000/svg" width="185" height="185">
<path d="M0 0 C61.05 0 122.1 0 185 0 C185 61.05 185 122.1 185 185 C123.95 185 62.9 185 0 185 C0 123.95 0 62.9 0 0 Z " fill="#FEFEFE" transform="translate(0,0)"/>
<path d="M0 0 C8.43659848 5.70961716 13.66611035 13.90293632 15.8125 23.8125 C15.88958723 25.18050819 15.92053609 26.55173592 15.91015625 27.921875 C15.90532227 29.05302734 15.90532227 29.05302734 15.90039062 30.20703125 C15.88782227 31.37298828 15.88782227 31.37298828 15.875 32.5625 C15.87048828 33.35527344 15.86597656 34.14804688 15.86132812 34.96484375 C15.84958565 36.91409508 15.83165146 38.86330738 15.8125 40.8125 C16.740625 40.895 17.66875 40.9775 18.625 41.0625 C21.8125 41.8125 21.8125 41.8125 23.48646545 43.55581665 C25.01964132 46.16501899 25.19729149 47.66241823 25.21655273 50.66943359 C25.22923691 51.63078217 25.24192108 52.59213074 25.25498962 53.58261108 C25.25205399 54.6149588 25.24911835 55.64730652 25.24609375 56.7109375 C25.2513356 57.77865387 25.25657745 58.84637024 25.26197815 59.94644165 C25.26839907 62.20419445 25.26706047 64.46198069 25.25854492 66.71972656 C25.25004823 70.16792703 25.27877568 73.61446374 25.31054688 77.0625 C25.31215935 79.257812 25.31158047 81.45312694 25.30859375 83.6484375 C25.31982773 84.67673676 25.33106171 85.70503601 25.34263611 86.76449585 C25.2845416 92.75699285 24.8461429 96.27242554 20.8125 100.8125 C17.12058913 103.27377391 15.25780663 103.07667432 10.85009766 103.10302734 C9.79347176 103.11310318 9.79347176 103.11310318 8.71549988 103.12338257 C6.38578241 103.1423871 4.05635267 103.14628803 1.7265625 103.1484375 C0.1061491 103.15486404 -1.51426313 103.1615923 -3.13467407 103.16860962 C-6.53251841 103.18058873 -9.93026103 103.18428983 -13.328125 103.18310547 C-17.6784279 103.18290231 -22.02807727 103.21019769 -26.37822533 103.24464989 C-29.7257282 103.26690783 -33.07307356 103.27094335 -36.42064285 103.26988602 C-38.02419918 103.27224391 -39.62775972 103.28107811 -41.23124313 103.29655075 C-43.47672772 103.31618821 -45.72080038 103.31038284 -47.96630859 103.29833984 C-49.88133682 103.3026149 -49.88133682 103.3026149 -51.83505249 103.30697632 C-55.80805649 102.72096971 -57.39982164 101.6591201 -60.1875 98.8125 C-62.16170229 95.84291648 -62.44952605 93.46986613 -62.49389648 89.93969727 C-62.50988388 88.975121 -62.52587128 88.01054474 -62.54234314 87.01673889 C-62.54770584 85.98125412 -62.55306854 84.94576935 -62.55859375 83.87890625 C-62.56762222 82.80881821 -62.5766507 81.73873016 -62.58595276 80.63621521 C-62.60045264 78.37428586 -62.60934134 76.1123146 -62.61303711 73.8503418 C-62.62494476 70.39104667 -62.67414475 66.93352872 -62.72460938 63.47460938 C-62.73407241 61.27605037 -62.74130802 59.07748041 -62.74609375 56.87890625 C-62.76562607 55.84544571 -62.78515839 54.81198517 -62.80528259 53.74720764 C-62.775375 48.98516057 -62.73475463 46.57692567 -59.90258789 42.62084961 C-57.1875 40.8125 -57.1875 40.8125 -53.1875 40.8125 C-53.22230469 39.77351563 -53.25710937 38.73453125 -53.29296875 37.6640625 C-53.60779762 24.42375956 -51.91728596 14.13545898 -42.55859375 4.05859375 C-30.53011389 -7.07682032 -13.99823251 -7.9835777 0 0 Z " fill="#03AEFE" transform="translate(111.1875,40.1875)"/>
<path d="M0 0 C7.63679573 4.49223278 10.0218558 7.54371159 14.1875 15.875 C14.1875 21.815 14.1875 27.755 14.1875 33.875 C-1.3225 33.875 -16.8325 33.875 -32.8125 33.875 C-32.8125 12.43961233 -32.8125 12.43961233 -26.84765625 5.6328125 C-26.19667969 5.09398437 -25.54570313 4.55515625 -24.875 4 C-24.22660156 3.44570313 -23.57820313 2.89140625 -22.91015625 2.3203125 C-16.03524249 -2.4165927 -7.81004757 -2.3046042 0 0 Z " fill="#FCFDFE" transform="translate(101.8125,47.125)"/>
<path d="M0 0 C8.43659848 5.70961716 13.66611035 13.90293632 15.8125 23.8125 C15.88958723 25.18050819 15.92053609 26.55173592 15.91015625 27.921875 C15.90532227 29.05302734 15.90532227 29.05302734 15.90039062 30.20703125 C15.88782227 31.37298828 15.88782227 31.37298828 15.875 32.5625 C15.87048828 33.35527344 15.86597656 34.14804688 15.86132812 34.96484375 C15.84958565 36.91409508 15.83165146 38.86330738 15.8125 40.8125 C12.1825 40.8125 8.5525 40.8125 4.8125 40.8125 C4.78671875 39.6059375 4.7609375 38.399375 4.734375 37.15625 C4.67805114 35.54163262 4.6207048 33.92705067 4.5625 32.3125 C4.54832031 31.52101562 4.53414062 30.72953125 4.51953125 29.9140625 C4.24370529 23.18390906 2.48364857 17.97152959 -1.8984375 12.7890625 C-8.38533151 7.52036455 -13.87735995 6.32840671 -22.21875 6.50390625 C-29.2615865 7.23599057 -33.5365706 10.60705148 -37.9609375 15.93359375 C-41.36315297 21.14526776 -41.58312974 26.07058081 -41.8125 32.125 C-41.85117188 32.96095703 -41.88984375 33.79691406 -41.9296875 34.65820312 C-42.02345159 36.70929259 -42.10654245 38.76086515 -42.1875 40.8125 C-45.8175 40.8125 -49.4475 40.8125 -53.1875 40.8125 C-53.66732482 26.48884043 -52.8045935 15.09085727 -42.55859375 4.05859375 C-30.53011389 -7.07682032 -13.99823251 -7.9835777 0 0 Z " fill="#8F9090" transform="translate(111.1875,40.1875)"/>
<path d="M0 0 C3.29714793 0.32971479 4.6226839 0.6226839 7 3 C7.38080215 6.50337981 7.40245078 8.36278626 5.5 11.375 C5.005 11.91125 4.51 12.4475 4 13 C1.625 12.6875 1.625 12.6875 -1 12 C-3 9 -3 9 -2.75 5.4375 C-2 2 -2 2 0 0 Z " fill="#282F31" transform="translate(74,100)"/>
<path d="M0 0 C2.5 0.1875 2.5 0.1875 5 1 C7.56687367 4.8503105 6.83288724 6.58569763 6 11 C4.35 11.66 2.7 12.32 1 13 C-1.0625 11.4375 -1.0625 11.4375 -3 9 C-2.78571429 2.78571429 -2.78571429 2.78571429 0 0 Z " fill="#282E30" transform="translate(107,100)"/>
<path d="M0 0 C1.32 0 2.64 0 4 0 C4.66 0.99 5.32 1.98 6 3 C9.08365871 3.2502157 9.08365871 3.2502157 12 3 C12.33 2.01 12.66 1.02 13 0 C14.32 0 15.64 0 17 0 C16.73136414 3.31317555 16.40940132 4.63876354 13.875 6.875 C10.09009484 8.35604984 7.89942866 8.06348054 4 7 C1.5625 5.125 1.5625 5.125 0 3 C0 2.01 0 1.02 0 0 Z " fill="#273133" transform="translate(84,112)"/>
<path d="M0 0 C1.32 0 2.64 0 4 0 C4.66 0.99 5.32 1.98 6 3 C8.05003955 4.19232613 8.05003955 4.19232613 10 5 C8.02 5.66 6.04 6.32 4 7 C2 5.1875 2 5.1875 0 3 C0 2.01 0 1.02 0 0 Z " fill="#25383D" transform="translate(84,112)"/>
</svg>
